<mxfile host="app.diagrams.net" modified="2024-04-04T03:10:05.996Z" agent="Mozilla/5.0 (Windows NT 10.0; Win64; x64) AppleWebKit/537.36 (KHTML, like Gecko) Chrome/123.0.0.0 Safari/537.36" etag="wVsd6HIc-JQ7OZ5d9htl" version="24.2.1" type="device">
  <diagram name="Page-1" id="Tt3rZ8bCNVKxAapo_g-M">
    <mxGraphModel dx="1050" dy="583" grid="1" gridSize="10" guides="1" tooltips="1" connect="1" arrows="1" fold="1" page="1" pageScale="1" pageWidth="850" pageHeight="1100" math="0" shadow="0">
      <root>
        <mxCell id="0" />
        <mxCell id="1" parent="0" />
        <mxCell id="AEkf3rE0-6bNu3OGeSoE-6" style="edgeStyle=orthogonalEdgeStyle;rounded=0;orthogonalLoop=1;jettySize=auto;html=1;" edge="1" parent="1" source="AEkf3rE0-6bNu3OGeSoE-1" target="AEkf3rE0-6bNu3OGeSoE-5">
          <mxGeometry relative="1" as="geometry" />
        </mxCell>
        <mxCell id="AEkf3rE0-6bNu3OGeSoE-1" value="" style="sketch=0;aspect=fixed;pointerEvents=1;shadow=0;dashed=0;html=1;strokeColor=none;labelPosition=center;verticalLabelPosition=bottom;verticalAlign=top;align=center;fillColor=#00188D;shape=mxgraph.azure.laptop" vertex="1" parent="1">
          <mxGeometry x="260" y="230" width="200" height="120" as="geometry" />
        </mxCell>
        <mxCell id="AEkf3rE0-6bNu3OGeSoE-2" value="&lt;b&gt;yum repos&lt;/b&gt;" style="ellipse;shape=cloud;whiteSpace=wrap;html=1;" vertex="1" parent="1">
          <mxGeometry x="360" y="60" width="120" height="80" as="geometry" />
        </mxCell>
        <mxCell id="AEkf3rE0-6bNu3OGeSoE-3" style="edgeStyle=orthogonalEdgeStyle;rounded=0;orthogonalLoop=1;jettySize=auto;html=1;entryX=0.38;entryY=0.965;entryDx=0;entryDy=0;entryPerimeter=0;" edge="1" parent="1" source="AEkf3rE0-6bNu3OGeSoE-1" target="AEkf3rE0-6bNu3OGeSoE-2">
          <mxGeometry relative="1" as="geometry" />
        </mxCell>
        <mxCell id="AEkf3rE0-6bNu3OGeSoE-4" value="&lt;b&gt;URL&lt;/b&gt;" style="text;html=1;align=center;verticalAlign=middle;resizable=0;points=[];autosize=1;strokeColor=none;fillColor=none;" vertex="1" parent="1">
          <mxGeometry x="400" y="150" width="50" height="30" as="geometry" />
        </mxCell>
        <mxCell id="AEkf3rE0-6bNu3OGeSoE-5" value="&lt;b&gt;amazon extras&lt;/b&gt;" style="ellipse;shape=cloud;whiteSpace=wrap;html=1;" vertex="1" parent="1">
          <mxGeometry x="510" y="90" width="120" height="80" as="geometry" />
        </mxCell>
        <mxCell id="AEkf3rE0-6bNu3OGeSoE-9" style="edgeStyle=orthogonalEdgeStyle;rounded=0;orthogonalLoop=1;jettySize=auto;html=1;" edge="1" parent="1" source="AEkf3rE0-6bNu3OGeSoE-7" target="AEkf3rE0-6bNu3OGeSoE-8">
          <mxGeometry relative="1" as="geometry" />
        </mxCell>
        <mxCell id="AEkf3rE0-6bNu3OGeSoE-7" value="" style="sketch=0;aspect=fixed;pointerEvents=1;shadow=0;dashed=0;html=1;strokeColor=none;labelPosition=center;verticalLabelPosition=bottom;verticalAlign=top;align=center;fillColor=#00188D;shape=mxgraph.azure.laptop" vertex="1" parent="1">
          <mxGeometry x="70" y="460" width="200" height="120" as="geometry" />
        </mxCell>
        <mxCell id="AEkf3rE0-6bNu3OGeSoE-8" value="" style="image;html=1;image=img/lib/clip_art/computers/Server_Rack_128x128.png" vertex="1" parent="1">
          <mxGeometry x="490" y="470" width="80" height="80" as="geometry" />
        </mxCell>
        <mxCell id="AEkf3rE0-6bNu3OGeSoE-10" value="" style="rounded=1;whiteSpace=wrap;html=1;" vertex="1" parent="1">
          <mxGeometry x="430" y="620" width="350" height="180" as="geometry" />
        </mxCell>
        <mxCell id="AEkf3rE0-6bNu3OGeSoE-11" value="&lt;b&gt;SSH&lt;/b&gt;&lt;div&gt;&lt;b&gt;22&lt;/b&gt;&lt;/div&gt;" style="ellipse;whiteSpace=wrap;html=1;" vertex="1" parent="1">
          <mxGeometry x="480" y="640" width="120" height="80" as="geometry" />
        </mxCell>
        <mxCell id="AEkf3rE0-6bNu3OGeSoE-12" value="" style="endArrow=classic;html=1;rounded=0;entryX=0;entryY=0.5;entryDx=0;entryDy=0;exitX=0.5;exitY=1;exitDx=0;exitDy=0;exitPerimeter=0;" edge="1" parent="1" source="AEkf3rE0-6bNu3OGeSoE-7" target="AEkf3rE0-6bNu3OGeSoE-10">
          <mxGeometry width="50" height="50" relative="1" as="geometry">
            <mxPoint x="400" y="570" as="sourcePoint" />
            <mxPoint x="450" y="520" as="targetPoint" />
            <Array as="points">
              <mxPoint x="160" y="710" />
            </Array>
          </mxGeometry>
        </mxCell>
        <mxCell id="AEkf3rE0-6bNu3OGeSoE-13" value="" style="endArrow=classic;html=1;rounded=0;exitX=0;exitY=0.5;exitDx=0;exitDy=0;" edge="1" parent="1" source="AEkf3rE0-6bNu3OGeSoE-10" target="AEkf3rE0-6bNu3OGeSoE-11">
          <mxGeometry width="50" height="50" relative="1" as="geometry">
            <mxPoint x="400" y="570" as="sourcePoint" />
            <mxPoint x="450" y="520" as="targetPoint" />
          </mxGeometry>
        </mxCell>
        <mxCell id="AEkf3rE0-6bNu3OGeSoE-14" value="&lt;b&gt;request&lt;/b&gt;" style="text;html=1;align=center;verticalAlign=middle;resizable=0;points=[];autosize=1;strokeColor=none;fillColor=none;" vertex="1" parent="1">
          <mxGeometry x="185" y="628" width="70" height="30" as="geometry" />
        </mxCell>
        <mxCell id="AEkf3rE0-6bNu3OGeSoE-15" value="&lt;b&gt;service&lt;/b&gt;" style="text;html=1;align=center;verticalAlign=middle;resizable=0;points=[];autosize=1;strokeColor=none;fillColor=none;" vertex="1" parent="1">
          <mxGeometry x="510" y="720" width="60" height="30" as="geometry" />
        </mxCell>
        <mxCell id="AEkf3rE0-6bNu3OGeSoE-16" value="&lt;div&gt;&lt;b&gt;nginx&lt;/b&gt;&lt;/div&gt;&lt;div&gt;&lt;b&gt;80&lt;/b&gt;&lt;/div&gt;" style="ellipse;whiteSpace=wrap;html=1;" vertex="1" parent="1">
          <mxGeometry x="610" y="720" width="120" height="80" as="geometry" />
        </mxCell>
        <mxCell id="AEkf3rE0-6bNu3OGeSoE-17" style="edgeStyle=orthogonalEdgeStyle;rounded=0;orthogonalLoop=1;jettySize=auto;html=1;entryX=0.005;entryY=0.856;entryDx=0;entryDy=0;entryPerimeter=0;" edge="1" parent="1" source="AEkf3rE0-6bNu3OGeSoE-7" target="AEkf3rE0-6bNu3OGeSoE-10">
          <mxGeometry relative="1" as="geometry">
            <Array as="points">
              <mxPoint x="170" y="630" />
              <mxPoint x="340" y="630" />
              <mxPoint x="340" y="774" />
            </Array>
          </mxGeometry>
        </mxCell>
        <mxCell id="AEkf3rE0-6bNu3OGeSoE-18" value="" style="endArrow=classic;html=1;rounded=0;exitX=0;exitY=0.86;exitDx=0;exitDy=0;exitPerimeter=0;entryX=0;entryY=0.325;entryDx=0;entryDy=0;entryPerimeter=0;" edge="1" parent="1" source="AEkf3rE0-6bNu3OGeSoE-10" target="AEkf3rE0-6bNu3OGeSoE-16">
          <mxGeometry width="50" height="50" relative="1" as="geometry">
            <mxPoint x="400" y="570" as="sourcePoint" />
            <mxPoint x="450" y="520" as="targetPoint" />
          </mxGeometry>
        </mxCell>
        <mxCell id="AEkf3rE0-6bNu3OGeSoE-19" value="&lt;div&gt;&lt;b&gt;nginx&lt;/b&gt;&lt;/div&gt;&lt;div&gt;&lt;b&gt;443&lt;/b&gt;&lt;/div&gt;" style="ellipse;whiteSpace=wrap;html=1;" vertex="1" parent="1">
          <mxGeometry x="620" y="620" width="120" height="80" as="geometry" />
        </mxCell>
      </root>
    </mxGraphModel>
  </diagram>
</mxfile>
